<?xml version="1.0" encoding="utf-8"?>
<!-- Generator: Adobe Illustrator 23.0.1, SVG Export Plug-In . SVG Version: 6.00 Build 0)  -->
<!DOCTYPE svg PUBLIC "-//W3C//DTD SVG 1.1//EN" "http://www.w3.org/Graphics/SVG/1.1/DTD/svg11.dtd" [
	<!ENTITY ns_extend "http://ns.adobe.com/Extensibility/1.0/">
	<!ENTITY ns_ai "http://ns.adobe.com/AdobeIllustrator/10.0/">
	<!ENTITY ns_graphs "http://ns.adobe.com/Graphs/1.0/">
	<!ENTITY ns_vars "http://ns.adobe.com/Variables/1.0/">
	<!ENTITY ns_imrep "http://ns.adobe.com/ImageReplacement/1.0/">
	<!ENTITY ns_sfw "http://ns.adobe.com/SaveForWeb/1.0/">
	<!ENTITY ns_custom "http://ns.adobe.com/GenericCustomNamespace/1.0/">
	<!ENTITY ns_adobe_xpath "http://ns.adobe.com/XPath/1.0/">
]>
<svg version="1.1" id="Layer_1" xmlns:x="&ns_extend;" xmlns:i="&ns_ai;" xmlns:graph="&ns_graphs;"
	 xmlns="http://www.w3.org/2000/svg" xmlns:xlink="http://www.w3.org/1999/xlink" x="0px" y="0px" viewBox="0 0 850.4 850.4"
	 style="enable-background:new 0 0 850.4 850.4;" xml:space="preserve">
<style type="text/css">
	.st0{fill:#0EA37F;}
</style>
<metadata>
	<sfw  xmlns="&ns_sfw;">
		<slices></slices>
		<sliceSourceBounds  bottomLeftOrigin="true" height="4406.5" width="2613.5" x="8.7" y="-4419.9"></sliceSourceBounds>
		<optimizationSettings>
			<targetSettings  fileFormat="PNG24Format" targetSettingsID="0">
				<PNG24Format  filtered="false" interlaced="false" matteColor="#FFFFFF" noMatteColor="true" transparency="true">
					</PNG24Format>
			</targetSettings>
		</optimizationSettings>
	</sfw>
</metadata>
<path d="M1707.1,3186.3c0,0.9,0,1.7,0,2.6c0-0.2,0-0.4,0-0.6C1707.1,3187.7,1707.1,3187,1707.1,3186.3z"/>
<path d="M2622.1,3590.6c0,2.7,0,5.5,0,8.2c0-0.6,0-1.2,0-1.8C2622.2,3594.9,2622.2,3592.7,2622.1,3590.6z"/>
<path d="M2512.5,3572.7c0.1,3.8,0.1,7.6,0.1,11.4c0-0.8,0-1.6,0-2.4C2512.6,3578.7,2512.6,3575.7,2512.5,3572.7z M2046,4274.8
	c-85.2,34.2-178.1,53-275.4,53c-409.1,0-742-332.9-742-742s332.9-742,742-742c93.4,0,182.8,17.4,265.2,49
	c26.6-23.4,54.4-45.1,83.3-65c-7.9-3.6-15.8-7.1-23.8-10.5c-102.9-43.5-212.1-65.6-324.7-65.6c-112.6,0-221.8,22.1-324.7,65.6
	c-99.3,42-188.5,102.2-265.1,178.7c-76.6,76.6-136.7,165.8-178.7,265.1c-43.5,102.9-65.6,212.1-65.6,324.7
	c0,112.6,22.1,221.8,65.6,324.7c42,99.3,102.2,188.5,178.7,265.1c76.6,76.6,165.8,136.7,265.1,178.7
	c102.9,43.5,212.1,65.6,324.7,65.6c112.6,0,221.8-22.1,324.7-65.6c11.8-5,23.5-10.3,35-15.8C2101,4319,2072.9,4297.7,2046,4274.8z"
	/>
<path d="M2604.7,3584.1v-0.6c0-2.8,0-5.5,0-8.3c0-1.7,0-3.5-0.1-5.2v-0.3c-2-106.9-24-210.7-65.4-308.7
	c-42-99.3-102.2-188.5-178.7-265.1c-4.4-4.4-8.8-8.7-13.2-13c-29.1,14.2-57,30.5-83.6,48.7c60.6,54,112.3,117.7,152.7,188.8
	c-73.3-51.3-160.3-78.9-251.6-78.9c-8.6,0-17.2,0.2-25.8,0.7c-107.9,6.2-208.4,51.1-285.4,128.2c-82.9,82.9-128.6,192.9-128.9,310.1
	v1.1c0,1.1,0,2.3,0,3.4c0,0.9,0,1.7,0,2.6c1.5,115.3,47.1,223.5,128.9,305.2c78.1,78,180.2,123.2,289.7,128.4
	c7.1,0.3,14.3,0.5,21.5,0.5c94.5,0,184.4-29.6,259.2-84.3c-39.6,73.3-91.2,139.2-152.1,195c26.8,17.8,55,33.7,84.3,47.5
	c1.5-1.4,2.9-2.9,4.4-4.4c76.6-76.6,136.7-165.8,178.7-265.1c43.5-102.9,65.6-212.1,65.6-324.7
	C2604.7,3585.2,2604.7,3584.6,2604.7,3584.1z M2512.6,3584.6v0.3c-1.8,190.4-157.2,344.7-348,344.7c-34.4,0-67.6-5-99-14.3
	c-143.8-42.7-249-176.1-249-333.6c0-156.3,103.6-288.9,245.7-332.6v0c32.3-10,66.7-15.3,102.3-15.3c188.6,0,342.6,150.8,347.8,338.2
	v0.1c0,0.2,0,0.5,0,0.7c0.1,3,0.1,6,0.1,9c0,0.8,0,1.6,0,2.4C2512.6,3584.2,2512.6,3584.4,2512.6,3584.6z"/>
<path d="M1707.1,3186.3c0,0.9,0,1.7,0,2.6c0-0.2,0-0.4,0-0.6C1707.1,3187.7,1707.1,3187,1707.1,3186.3z"/>
<path d="M2622.1,3590.6c0,2.7,0,5.5,0,8.2c0-0.6,0-1.2,0-1.8C2622.2,3594.9,2622.2,3592.7,2622.1,3590.6z"/>
<path d="M2512.5,3572.7c0.1,3.8,0.1,7.6,0.1,11.4c0-0.8,0-1.6,0-2.4C2512.6,3578.7,2512.6,3575.7,2512.5,3572.7z M2046,4274.8
	c-85.2,34.2-178.1,53-275.4,53c-409.1,0-742-332.9-742-742s332.9-742,742-742c93.4,0,182.8,17.4,265.2,49
	c26.6-23.4,54.4-45.1,83.3-65c-7.9-3.6-15.8-7.1-23.8-10.5c-102.9-43.5-212.1-65.6-324.7-65.6c-112.6,0-221.8,22.1-324.7,65.6
	c-99.3,42-188.5,102.2-265.1,178.7c-76.6,76.6-136.7,165.8-178.7,265.1c-43.5,102.9-65.6,212.1-65.6,324.7
	c0,112.6,22.1,221.8,65.6,324.7c42,99.3,102.2,188.5,178.7,265.1c76.6,76.6,165.8,136.7,265.1,178.7
	c102.9,43.5,212.1,65.6,324.7,65.6c112.6,0,221.8-22.1,324.7-65.6c11.8-5,23.5-10.3,35-15.8C2101,4319,2072.9,4297.7,2046,4274.8z"
	/>
<path d="M2604.7,3584.1v-0.6c0-2.8,0-5.5,0-8.3c0-1.7,0-3.5-0.1-5.2v-0.3c-2-106.9-24-210.7-65.4-308.7
	c-42-99.3-102.2-188.5-178.7-265.1c-4.4-4.4-8.8-8.7-13.2-13c-29.1,14.2-57,30.5-83.6,48.7c60.6,54,112.3,117.7,152.7,188.8
	c-73.3-51.3-160.3-78.9-251.6-78.9c-8.6,0-17.2,0.2-25.8,0.7c-107.9,6.2-208.4,51.1-285.4,128.2c-82.9,82.9-128.6,192.9-128.9,310.1
	v1.1c0,1.1,0,2.3,0,3.4c0,0.9,0,1.7,0,2.6c1.5,115.3,47.1,223.5,128.9,305.2c78.1,78,180.2,123.2,289.7,128.4
	c7.1,0.3,14.3,0.5,21.5,0.5c94.5,0,184.4-29.6,259.2-84.3c-39.6,73.3-91.2,139.2-152.1,195c26.8,17.8,55,33.7,84.3,47.5
	c1.5-1.4,2.9-2.9,4.4-4.4c76.6-76.6,136.7-165.8,178.7-265.1c43.5-102.9,65.6-212.1,65.6-324.7
	C2604.7,3585.2,2604.7,3584.6,2604.7,3584.1z M2512.6,3584.6v0.3c-1.8,190.4-157.2,344.7-348,344.7c-34.4,0-67.6-5-99-14.3
	c-143.8-42.7-249-176.1-249-333.6c0-156.3,103.6-288.9,245.7-332.6v0c32.3-10,66.7-15.3,102.3-15.3c188.6,0,342.6,150.8,347.8,338.2
	v0.1c0,0.2,0,0.5,0,0.7c0.1,3,0.1,6,0.1,9c0,0.8,0,1.6,0,2.4C2512.6,3584.2,2512.6,3584.4,2512.6,3584.6z"/>
<path class="st0" d="M389.6,228.3c0,0.4,0,0.9,0,1.3c0-0.1,0-0.2,0-0.3C389.6,229,389.6,228.6,389.6,228.3z"/>
<path class="st0" d="M842,428.1c0,1.4,0,2.7,0,4.1c0-0.3,0-0.6,0-0.9C842,430.3,842,429.2,842,428.1z"/>
<path class="st0" d="M787.8,419.3c0,1.9,0.1,3.7,0.1,5.6c0-0.4,0-0.8,0-1.2C787.8,422.2,787.8,420.8,787.8,419.3z M557.2,766.4
	c-42.1,16.9-88,26.2-136.1,26.2C218.8,792.6,54.2,628,54.2,425.8S218.8,58.9,421,58.9c46.2,0,90.4,8.6,131.1,24.2
	C565.3,71.6,579,60.9,593.3,51c-3.9-1.8-7.8-3.5-11.8-5.2C530.7,24.3,476.7,13.4,421,13.4c-55.7,0-109.7,10.9-160.5,32.4
	c-49.1,20.8-93.2,50.5-131.1,88.4c-37.9,37.9-67.6,82-88.4,131.1C19.6,316.1,8.7,370.1,8.7,425.8c0,55.7,10.9,109.7,32.4,160.5
	c20.8,49.1,50.5,93.2,88.4,131.1c37.9,37.9,82,67.6,131.1,88.4c50.8,21.5,104.9,32.4,160.5,32.4c55.7,0,109.7-10.9,160.5-32.4
	c5.8-2.5,11.6-5.1,17.3-7.8C584.4,788.2,570.5,777.7,557.2,766.4z"/>
<path class="st0" d="M833.4,424.9v-0.3c0-1.4,0-2.7,0-4.1c0-0.9,0-1.7-0.1-2.6v-0.1c-1-52.9-11.9-104.2-32.3-152.6
	c-20.8-49.1-50.5-93.2-88.4-131.1c-2.2-2.2-4.3-4.3-6.5-6.4c-14.4,7-28.2,15.1-41.3,24.1c30,26.7,55.5,58.2,75.5,93.3
	c-36.2-25.3-79.3-39-124.4-39c-4.3,0-8.5,0.1-12.8,0.4c-53.3,3.1-103,25.3-141.1,63.3c-41,41-63.6,95.4-63.7,153.3v0.6
	c0,0.6,0,1.1,0,1.7c0,0.4,0,0.8,0,1.3c0.8,57,23.3,110.5,63.7,150.9c38.6,38.6,89.1,60.9,143.2,63.5c3.5,0.2,7.1,0.3,10.6,0.3
	c46.7,0,91.1-14.6,128.1-41.7c-19.6,36.2-45.1,68.8-75.2,96.4c13.2,8.8,27.2,16.6,41.7,23.5c0.7-0.7,1.5-1.4,2.2-2.2
	c37.9-37.9,67.6-82,88.4-131.1c21.5-50.8,32.4-104.9,32.4-160.5C833.4,425.5,833.4,425.2,833.4,424.9z M787.8,425.2v0.2
	c-0.9,94.1-77.7,170.4-172,170.4c-17,0-33.4-2.5-48.9-7.1c-71.1-21.1-123.1-87.1-123.1-164.9c0-77.3,51.2-142.8,121.5-164.4v0
	c16-4.9,33-7.6,50.6-7.6c93.2,0,169.4,74.6,171.9,167.2v0.1c0,0.1,0,0.2,0,0.4c0,1.5,0.1,3,0.1,4.4c0,0.4,0,0.8,0,1.2
	C787.8,425,787.8,425.1,787.8,425.2z"/>
</svg>
